<svg width="64" height="64" viewBox="0 0 64 64" fill="none" xmlns="http://www.w3.org/2000/svg">
<path d="M22.07 27.65L41.93 27.65L41.93 26.55L22.07 26.55ZM37.24 22.2L37.24 41.8L38.34 41.8L38.34 22.2ZM24 27.1L24 30.36L25.1 30.36L25.1 27.1ZM26.19 32C26.19 32.91 25.46 33.64 24.55 33.64C23.64 33.64 22.91 32.91 22.91 32C22.91 31.09 23.64 30.36 24.55 30.36C25.46 30.36 26.19 31.09 26.19 32ZM25.09 32C25.09 31.7 24.85 31.46 24.55 31.46C24.25 31.46 24.01 31.7 24.01 32C24.01 32.3 24.25 32.54 24.55 32.54C24.85 32.54 25.09 32.3 25.09 32Z" fill="black"/>
</svg>
